# xmcd
#
# Track frame offsets: 
#        150
#        9924
#        19930
#        29037
#        41299
#        52689
#        62848
#        73325
#        83701
#        95095
#        105533
#        115073
#        126652
#        136507
#        147203
#        157732
#        168380
#        178518
#        188518
#        198460
#        209339
#        222159
#        234395
#        244912
#        256051
#
# Disc length: 3562 seconds
#
# Revision: 5
# Processed by: cddbd v1.5.2PL0 Copyright (c) Steve Scherf et al.
# Submitted via: ExactAudioCopyFreeDBPlugin 1.0
#
DISCID=540de819
DTITLE=Various Artist - The Best Of Music Note and Music Tone Records V
DTITLE=olume 01
DYEAR=2000
DGENRE=Doo Wop
TTITLE0=The Chalets - Fat Fat Mom-Mi-O
TTITLE1=The Tokens - Come Dance With Me
TTITLE2=Lou Jordan and Group - Just To Look At You
TTITLE3=The Delmonicos - The World's Biggest Fool
TTITLE4=The Cupids - Lorraine
TTITLE5=Tony Valor and Group - So Tenderly
TTITLE6=The Concepts - Whisper
TTITLE7=Bill Baker and Group - Why Did Summer Have To End
TTITLE8=Joni Gordon - I'm Watching A Wedding
TTITLE9=The Videls - We Belong Together
TTITLE10=The Chimes - Summer Night
TTITLE11=The Elchords - Peppermint Stick
TTITLE12=The Four Chymes - Now Look At Who's Crying
TTITLE13=Toni - If I Were Ready For Love
TTITLE14=The Ionics - Roll Back The Rug
TTITLE15=Stoney Jackson - Where Is My Baby
TTITLE16=The Crests - Sweetest One
TTITLE17=The Five Satins - Just To Be Near You
TTITLE18=The Eternals - Babalu's Wedding Day
TTITLE19=The Paragons - The Four Winds
TTITLE20=Riki Troyi - Linda (Is The Girl For Me)
TTITLE21=The Delmonicos - You Can Call
TTITLE22=The Satin-Tones - Dream Girl
TTITLE23=The Personalities - Woe Woe Baby
TTITLE24=The Classics - PS I Love You
EXTD=
EXTT0=
EXTT1=
EXTT2=
EXTT3=
EXTT4=
EXTT5=
EXTT6=
EXTT7=
EXTT8=
EXTT9=
EXTT10=
EXTT11=
EXTT12=
EXTT13=
EXTT14=
EXTT15=
EXTT16=
EXTT17=
EXTT18=
EXTT19=
EXTT20=
EXTT21=
EXTT22=
EXTT23=
EXTT24=
PLAYORDER=
